<?xml version="1.0" standalone="no"?>
<!DOCTYPE svg PUBLIC "-//W3C//DTD SVG 20010904//EN"
 "http://www.w3.org/TR/2001/REC-SVG-20010904/DTD/svg10.dtd">
<svg version="1.0" xmlns="http://www.w3.org/2000/svg"
 width="381.000000pt" height="460.000000pt" viewBox="0 0 381.000000 460.000000"
 preserveAspectRatio="xMidYMid meet">

<g transform="translate(0.000000,460.000000) scale(0.100000,-0.100000)"
fill="#000000" stroke="none">
<path d="M240 4586 c-120 -32 -199 -123 -220 -252 -13 -81 -13 -3978 0 -4059
20 -122 104 -189 263 -208 72 -8 98 -7 207 15 l125 24 3 967 2 967 908 0 c864
0 909 1 948 19 130 59 168 285 77 464 l-14 27 -959 0 -960 0 0 770 0 770 1049
2 1049 3 43 30 c26 18 53 50 68 80 23 44 26 61 26 160 0 94 -4 119 -25 170
l-25 60 -1260 2 c-970 1 -1270 -1 -1305 -11z"/>
<path d="M3328 820 c-218 -34 -356 -237 -321 -475 27 -187 141 -305 326 -336
83 -14 194 0 264 33 213 100 280 432 128 638 -81 110 -235 164 -397 140z"/>
</g>
</svg>
