<svg xmlns="http://www.w3.org/2000/svg">
  <defs>
    <symbol id="tuk-svg" viewBox="0 0 3000 7500">
        <path d="M1455 6263 c-44 -13 -100 -31 -125 -38 -40 -12 -307 -93 -480 -146
        -36 -12 -77 -25 -92 -31 l-28 -10 0 -584 0 -584 -358 -2 -357 -3 -3 -327 -2
        -328 360 0 360 0 0 -345 0 -345 -210 0 -210 0 2 -322 3 -323 207 -3 207 -2 4
        -828 c3 -730 5 -839 21 -932 47 -285 127 -479 272 -666 168 -216 412 -351 751
        -416 104 -20 150 -23 388 -23 216 0 293 4 385 19 134 21 279 55 379 87 l71 23
        0 314 c0 250 -3 313 -13 309 -40 -15 -215 -58 -292 -72 -288 -50 -624 -17
        -821 80 -138 67 -205 150 -266 324 -44 127 -48 212 -48 1019 l0 762 385 0
        c300 0 387 3 390 13 5 14 65 581 65 614 l0 23 -417 2 -418 3 -3 342 -2 343
        632 2 633 3 17 205 c9 113 18 259 20 325 l3 120 -652 3 -653 2 0 710 c0 562
        -3 710 -12 709 -7 -1 -49 -12 -93 -26z" fill="currentColor" stroke="none" transform="translate(0, 7500) scale(1, -1)"/>
    </symbol>
  </defs>
</svg>
